<svg width="24" height="24" fill="none" xmlns="http://www.w3.org/2000/svg"><path fill-rule="evenodd" clip-rule="evenodd" d="M14.763 11.924c-.091-1.844-1.404-2.953-2.99-2.953h-.06c-1.83 0-2.845 1.5-2.845 3.204 0 1.908 1.228 3.113 2.838 3.113 1.796 0 2.976-1.37 3.061-2.992l-.004-.372zm-3.04-4.602c1.222 0 2.372.563 3.216 1.445v.003c0-.423.273-.742.653-.742l.096-.001c.594 0 .716.586.716.77l.003 6.585c-.042.431.426.653.686.377 1.015-1.086 2.228-5.585-.63-8.192-2.664-2.43-6.239-2.03-8.14-.664-2.02 1.453-3.313 4.668-2.057 7.687 1.369 3.294 5.287 4.276 7.616 3.297 1.179-.497 1.724 1.165.499 1.708-1.85.822-7.001.74-9.407-3.605-1.626-2.933-1.539-8.095 2.772-10.768 3.298-2.046 7.647-1.48 10.269 1.375 2.74 2.983 2.58 8.57-.093 10.744-1.211.986-3.01.025-2.998-1.413l-.013-.47c-.843.872-1.966 1.382-3.189 1.382-2.416 0-4.542-2.217-4.542-4.734 0-2.543 2.126-4.784 4.542-4.784z" fill="#FFA930"/></svg>