<svg width="24" height="24" fill="none" xmlns="http://www.w3.org/2000/svg"><path fill-rule="evenodd" clip-rule="evenodd" d="M15.594 14.438c-.688.437-1.625.718-2.813.843l3.031 3.031c.271.271.344.579.22.922-.126.344-.36.584-.704.72-.344.134-.65.067-.922-.204L12 17.344l-2.375 2.375c-.27.27-.583.343-.938.218a1.124 1.124 0 01-.718-.703c-.125-.343-.042-.65.25-.922l3.031-3.03c-1.23-.126-2.177-.407-2.844-.845-.562-.374-.916-.666-1.062-.874-.188-.271-.188-.594 0-.97a.85.85 0 01.625-.5c.333-.083.687.022 1.062.313l.375.25c.313.167.646.313 1 .438a5.885 5.885 0 003.188 0 7.243 7.243 0 001-.438l.375-.25c.375-.291.74-.396 1.094-.312.27.062.479.229.625.5.166.375.156.698-.032.969-.146.208-.5.5-1.062.874zM7.938 8.063c0-.75.182-1.433.546-2.047a4.095 4.095 0 011.485-1.47A3.961 3.961 0 0112 4c.73 0 1.406.182 2.031.547.625.364 1.12.854 1.485 1.469.364.614.546 1.291.546 2.03 0 .74-.182 1.418-.546 2.032a4.096 4.096 0 01-1.485 1.469 3.961 3.961 0 01-2.031.547c-.73 0-1.406-.182-2.031-.547a4.096 4.096 0 01-1.485-1.469 3.879 3.879 0 01-.546-2.015zm2.062 0c0 .541.198 1.005.594 1.39.396.386.864.578 1.406.578.542 0 1.01-.192 1.406-.578.396-.385.594-.854.594-1.406 0-.552-.198-1.02-.594-1.406A1.948 1.948 0 0012 6.063c-.542 0-1.01.192-1.406.578A1.905 1.905 0 0010 8.063z" fill="#EC8125"/></svg>