<svg width="24" height="24" fill="none" xmlns="http://www.w3.org/2000/svg"><path fill-rule="evenodd" clip-rule="evenodd" d="M18.844 8.75c.02.083.031.219.031.406 0 1.5-.365 2.948-1.094 4.344-.75 1.48-1.802 2.656-3.156 3.531-1.48.98-3.177 1.469-5.094 1.469-1.833 0-3.51-.49-5.031-1.469.23.021.49.032.781.032 1.521 0 2.886-.47 4.094-1.407-.73 0-1.37-.213-1.922-.64a3.263 3.263 0 01-1.14-1.61c.208.021.406.031.593.031.292 0 .584-.03.875-.093a3.306 3.306 0 01-1.875-1.156 3.146 3.146 0 01-.75-2.063v-.063c.459.271.948.417 1.469.438a3.64 3.64 0 01-1.063-1.187 3.152 3.152 0 01-.406-1.579c0-.573.157-1.12.469-1.64A9.048 9.048 0 008.609 8.53a9.083 9.083 0 003.766 1 4.52 4.52 0 01-.063-.75c0-.583.146-1.13.438-1.64a3.21 3.21 0 011.188-1.203 3.17 3.17 0 011.624-.438c.48 0 .922.094 1.329.281a3.74 3.74 0 011.078.75 6.677 6.677 0 002.093-.781 3.262 3.262 0 01-1.437 1.813A7.049 7.049 0 0020.5 7.03a7.215 7.215 0 01-1.656 1.719z" fill="#2AA3EF"/></svg>