<svg width="24" height="24" fill="none" xmlns="http://www.w3.org/2000/svg"><path fill-rule="evenodd" clip-rule="evenodd" d="M20.031 7.688c-.062.312-.312.833-.75 1.562-.312.52-.687 1.125-1.125 1.813-.375.541-.573.822-.593.843-.125.188-.188.334-.188.438 0 .104.063.229.188.375l.28.312c1.5 1.542 2.345 2.604 2.532 3.188.063.25.036.442-.078.578-.115.135-.297.203-.547.203h-1.844a.994.994 0 01-.625-.219c-.125-.083-.349-.307-.672-.672a21.652 21.652 0 00-.859-.922C14.917 14.396 14.302 14 13.906 14c-.166 0-.286.031-.36.094-.072.062-.108.198-.108.406-.021.146-.032.469-.032.969v.812c.021.25-.041.427-.187.532-.188.125-.563.187-1.125.187-.98 0-1.969-.292-2.969-.875-1-.583-1.875-1.417-2.625-2.5a18.806 18.806 0 01-1.781-2.906 18.739 18.739 0 01-.907-2.094c-.145-.52-.218-.885-.218-1.094 0-.354.208-.531.625-.531h1.843c.23 0 .402.052.516.156.115.104.214.292.297.563.292.833.646 1.646 1.062 2.437.375.73.75 1.323 1.125 1.781.375.459.667.688.875.688.126 0 .214-.047.266-.14.052-.094.078-.277.078-.547v-2.72a2.254 2.254 0 00-.219-.874 2.08 2.08 0 00-.312-.485c-.146-.177-.219-.323-.219-.437 0-.115.047-.214.14-.297A.478.478 0 0110 7h2.906c.188 0 .318.052.39.156.074.104.11.282.11.532v3.625c0 .187.031.322.094.406.063.083.14.125.234.125a.675.675 0 00.329-.11c.124-.072.291-.224.5-.453.395-.437.791-.979 1.187-1.625.27-.458.531-.958.781-1.5l.313-.625c.146-.354.406-.531.781-.531h1.844c.5 0 .687.23.562.688z" fill="#4C77A6"/></svg>